<svg xmlns="http://www.w3.org/2000/svg" viewBox="0 0 1699.48 600.96"><defs><style>.cls-1{fill:none;stroke:#000;stroke-miterlimit:10;}</style></defs><title>new logo</title><g id="Layer_2" data-name="Layer 2"><path d="M544.64,415.3l108.45-24.77,11-2.52,102-23.29,7.27-1.66,6.06.08,33.06.45,73.76,1,73.76-1,33.06-.45,6.06-.08,7.27,1.66,102,23.29,11,2.52,108.45,24.77,12,2.74,101.77,23.24,13.16,3,102,23.29,16.17,3.69,102,23.3,17.78,4.06h0l102,23.3,17.81,4.07,22.91,5.23v150H1382.2c0-114.76-248.86-230.69-495.2-230.69h-1.52c-246.34,0-495.19,115.93-495.19,230.69H37v-150L59.92,526l17.81-4.07,102-23.3h0l17.79-4.06,102-23.3,16.16-3.69,102-23.3,13.16-3L532.65,418Z" transform="translate(-36.5 -80.78)"/><path d="M1711.47,391.13l1.1,134.88-17.81-4.07-.18-95.24c0-24.12-25.13-48.49-50-48.49-25.63,0-51.52,25.13-51.52,50l-.34,70.42-17.78-4.06-.18-93c0-24.12-25.12-48.49-50-48.49-25.63,0-51.52,25.13-51.52,50l-.33,68.23-16.17-3.69-.17-89.43c0-24.12-25.12-48.49-50-48.49-25.63,0-51.52,25.13-51.52,50l-.31,64.63-13.16-3-.15-88.78c0-26.85-25.08-54-49.91-54-25.59,0-51.43,28-51.43,55.68l-.28,63.85-12-2.74-.13-83.57c0-30.09-26.75-60.48-53.24-60.48-27.28,0-54.85,31.34-54.85,62.37l-.23,56.91-11-2.52-.16-85.88c0-24.12-25.13-48.49-50-48.49-25.63,0-51.52,25.13-51.52,50l-.29,61.08-7.27-1.66-6.06.08v-194h.79L1656.7,317.61Z" transform="translate(-36.5 -80.78)"/><path d="M1013.45,133.66l-5.24,12.73L993.06,140V363.14l-33.06.45V213.06c0-40.37-33.33-73-74.52-73a73,73,0,0,0-73,73V363.59l-33.06-.45V140l-15.15,6.36L759,133.66,886.24,81.55Z" transform="translate(-36.5 -80.78)"/><path d="M779.42,169.1v194l-6.06-.08-7.27,1.66-.29-61.08c0-24.87-25.89-50-51.52-50-24.87,0-50,24.37-50,48.49L664.13,388l-11,2.52-.23-56.91c0-31-27.57-62.37-54.86-62.37-26.48,0-53.23,30.39-53.23,60.48l-.13,83.57-12,2.74-.27-63.85c0-27.7-25.85-55.68-51.43-55.68-24.83,0-49.91,27.14-49.91,54l-.15,88.78-13.16,3-.31-64.62c0-24.87-25.89-50-51.52-50-24.87,0-50,24.37-50,48.49l-.17,89.43-16.16,3.69L299.24,403c0-24.87-25.89-50-51.52-50-24.87,0-50,24.37-50,48.49l-.17,93-17.79,4.06-.34-70.42c0-24.87-25.89-50-51.52-50-24.87,0-50,24.37-50,48.49l-.18,95.24L59.92,526,61,391.13l54.77-73.52L778.63,169.1Z" transform="translate(-36.5 -80.78)"/><line class="cls-1" x1="1674.97" y1="310.35" x2="1620.2" y2="236.83"/><line class="cls-1" x1="1658.08" y1="345.92" x2="1658.26" y2="441.16"/><line class="cls-1" x1="1556.22" y1="417.85" x2="1556.56" y2="347.43"/><path class="cls-1" d="M1593.06,428.21c0-24.87,25.89-50,51.52-50" transform="translate(-36.5 -80.78)"/><path class="cls-1" d="M1694.58,426.7c0-24.12-25.13-48.49-50-48.49" transform="translate(-36.5 -80.78)"/><polyline class="cls-1" points="1538.26 320.75 1538.44 413.79 1538.44 415.99"/><polyline class="cls-1" points="1436.41 392.69 1436.42 390.49 1436.75 322.26"/><path class="cls-1" d="M1473.25,403c0-24.87,25.89-50,51.52-50" transform="translate(-36.5 -80.78)"/><path class="cls-1" d="M1574.76,401.53c0-24.12-25.12-48.49-50-48.49" transform="translate(-36.5 -80.78)"/><polyline class="cls-1" points="1420.08 297.37 1420.25 386.8 1420.26 392.61"/><polyline class="cls-1" points="1318.23 369.31 1318.26 363.51 1318.57 298.88"/><path class="cls-1" d="M1355.07,379.66c0-24.87,25.89-50,51.52-50" transform="translate(-36.5 -80.78)"/><path class="cls-1" d="M1456.58,378.15c0-24.12-25.12-48.49-50-48.49" transform="translate(-36.5 -80.78)"/><polyline class="cls-1" points="1304.95 271.72 1305.1 360.5 1305.13 377.79"/><polyline class="cls-1" points="1203.27 351.84 1203.33 337.26 1203.61 273.41"/><path class="cls-1" d="M1240.11,354.19c0-27.7,25.84-55.68,51.43-55.68" transform="translate(-36.5 -80.78)"/><path class="cls-1" d="M1341.45,352.5c0-26.85-25.08-54-49.91-54" transform="translate(-36.5 -80.78)"/><polyline class="cls-1" points="1191.22 250.95 1191.35 334.52 1191.41 369.77"/><polyline class="cls-1" points="1082.77 340.7 1082.9 309.75 1083.13 252.84"/><path class="cls-1" d="M1119.63,333.62c0-31,27.57-62.37,54.85-62.37" transform="translate(-36.5 -80.78)"/><path class="cls-1" d="M1227.72,331.73c0-30.09-26.75-60.48-53.24-60.48" transform="translate(-36.5 -80.78)"/><polyline class="cls-1" points="1071.7 221.35 1071.86 307.23 1071.88 316.59"/><polyline class="cls-1" points="969.84 293.29 969.89 283.94 970.18 222.86"/><path class="cls-1" d="M1006.68,303.64c0-24.87,25.89-50,51.52-50" transform="translate(-36.5 -80.78)"/><path class="cls-1" d="M1108.2,302.13c0-24.12-25.13-48.49-50-48.49" transform="translate(-36.5 -80.78)"/><line class="cls-1" x1="24.52" y1="310.35" x2="79.29" y2="236.83"/><line class="cls-1" x1="41.41" y1="345.92" x2="41.23" y2="441.16"/><line class="cls-1" x1="143.26" y1="417.85" x2="142.92" y2="347.43"/><path class="cls-1" d="M179.42,428.21c0-24.87-25.89-50-51.52-50" transform="translate(-36.5 -80.78)"/><path class="cls-1" d="M77.91,426.7c0-24.12,25.12-48.49,50-48.49" transform="translate(-36.5 -80.78)"/><polyline class="cls-1" points="161.22 320.75 161.05 413.79 161.05 415.99"/><polyline class="cls-1" points="263.08 392.69 263.07 390.49 262.74 322.26"/><path class="cls-1" d="M299.24,403c0-24.87-25.89-50-51.52-50" transform="translate(-36.5 -80.78)"/><path class="cls-1" d="M197.72,401.53c0-24.12,25.13-48.49,50-48.49" transform="translate(-36.5 -80.78)"/><polyline class="cls-1" points="279.4 297.37 279.23 386.8 279.22 392.61"/><polyline class="cls-1" points="381.26 369.31 381.23 363.5 380.92 298.88"/><path class="cls-1" d="M417.42,379.66c0-24.87-25.89-50-51.52-50" transform="translate(-36.5 -80.78)"/><path class="cls-1" d="M315.9,378.15c0-24.12,25.13-48.49,50-48.49" transform="translate(-36.5 -80.78)"/><polyline class="cls-1" points="394.54 271.72 394.39 360.5 394.36 377.79"/><polyline class="cls-1" points="496.21 351.84 496.15 337.26 495.88 273.41"/><path class="cls-1" d="M532.38,354.19c0-27.7-25.85-55.68-51.43-55.68" transform="translate(-36.5 -80.78)"/><path class="cls-1" d="M431,352.5c0-26.85,25.08-54,49.91-54" transform="translate(-36.5 -80.78)"/><polyline class="cls-1" points="508.27 250.95 508.14 334.52 508.08 369.77"/><polyline class="cls-1" points="616.72 340.7 616.59 309.75 616.36 252.84"/><path class="cls-1" d="M652.86,333.62c0-31-27.57-62.37-54.86-62.37" transform="translate(-36.5 -80.78)"/><path class="cls-1" d="M544.77,331.73c0-30.09,26.75-60.48,53.23-60.48" transform="translate(-36.5 -80.78)"/><polyline class="cls-1" points="627.79 221.35 627.63 307.23 627.61 316.59"/><polyline class="cls-1" points="729.64 293.29 729.59 283.94 729.3 222.86"/><path class="cls-1" d="M765.8,303.64c0-24.87-25.89-50-51.52-50" transform="translate(-36.5 -80.78)"/><path class="cls-1" d="M664.29,302.13c0-24.12,25.12-48.49,50-48.49" transform="translate(-36.5 -80.78)"/><polyline class="cls-1" points="976.95 52.88 849.74 0.77 848.98 0.46"/><polyline class="cls-1" points="962.62 282.28 956.56 282.36 923.5 282.81 849.74 283.8"/><line class="cls-1" x1="976.95" y1="52.88" x2="971.71" y2="65.61"/><polyline class="cls-1" points="1698.98 450.46 1676.07 445.23 1658.26 441.16 1556.22 417.86 1556.22 417.85 1538.44 413.79 1436.42 390.49 1420.25 386.8 1318.26 363.51 1305.1 360.5 1203.33 337.26 1191.35 334.52 1082.9 309.75 1071.86 307.23 969.89 283.94 962.62 282.28"/><line class="cls-1" x1="956.56" y1="59.25" x2="971.71" y2="65.61"/><line class="cls-1" x1="1676.07" y1="445.23" x2="1674.97" y2="310.35"/><line class="cls-1" x1="957.35" y1="88.32" x2="1620.2" y2="236.83"/><line class="cls-1" x1="1698.98" y1="450.46" x2="1698.98" y2="600.46"/><line class="cls-1" x1="1345.7" y1="600.46" x2="1698.98" y2="600.46"/><path class="cls-1" d="M1382.2,681.24c0-114.76-248.86-230.69-495.2-230.69" transform="translate(-36.5 -80.78)"/><polyline class="cls-1" points="956.56 59.25 956.56 88.32 956.56 282.36 956.56 320.75"/><polyline class="cls-1" points="923.5 132.28 923.5 282.81 923.5 283.04"/><path class="cls-1" d="M960,213.06c0-40.37-33.33-73-74.52-73" transform="translate(-36.5 -80.78)"/><polyline class="cls-1" points="722.53 52.88 849.74 0.77 850.5 0.46"/><polyline class="cls-1" points="736.86 282.28 742.92 282.36 775.98 282.81 849.74 283.8"/><line class="cls-1" x1="722.53" y1="52.88" x2="727.77" y2="65.61"/><polyline class="cls-1" points="0.5 450.46 23.42 445.23 41.23 441.16 143.26 417.86 143.26 417.85 161.05 413.79 263.07 390.49 279.23 386.8 381.23 363.5 394.39 360.5 496.15 337.26 508.14 334.52 616.59 309.75 627.63 307.23 729.59 283.94 736.86 282.28"/><line class="cls-1" x1="742.92" y1="59.25" x2="727.77" y2="65.61"/><line class="cls-1" x1="23.42" y1="445.23" x2="24.52" y2="310.35"/><line class="cls-1" x1="742.13" y1="88.32" x2="79.29" y2="236.83"/><line class="cls-1" x1="0.5" y1="450.46" x2="0.5" y2="600.46"/><line class="cls-1" x1="353.79" y1="600.46" x2="0.5" y2="600.46"/><path class="cls-1" d="M390.29,681.24c0-114.76,248.85-230.69,495.19-230.69" transform="translate(-36.5 -80.78)"/><polyline class="cls-1" points="742.92 59.25 742.92 88.32 742.92 282.36 742.92 320.75"/><polyline class="cls-1" points="775.98 132.28 775.98 282.81 775.98 283.04"/><path class="cls-1" d="M812.48,213.06a73,73,0,0,1,73-73" transform="translate(-36.5 -80.78)"/></g></svg>