<svg xmlns="http://www.w3.org/2000/svg" viewBox="0 0 1699.48 600.96"><defs><style>.cls-1{fill:#fff;}.cls-2{fill:none;stroke:#fff;stroke-miterlimit:10;}</style></defs><title>pv logo white</title><g id="Layer_2" data-name="Layer 2"><path class="cls-1" d="M418.49,470.49l13.16-3,101.76-23.24,12-2.74,108.46-24.77,11-2.52,102-23.29,7.26-1.66,6.06.08,33.06.45,73.76,1,73.76-1,33.06-.45,6.06-.08,7.27,1.66,102,23.29,11,2.52,108.37,24.75,12.07,2.76,101.77,23.24,13.15,3,102,23.3,16.5,3.77,101.69,23.22,17.78,4.06h0l102,23.3,17.81,4.07,22.91,5.23v150H1383c0-114.76-250.37-230.69-496.72-230.69S391.05,592.69,391.05,707.45H37.76v-150l22.92-5.23,17.81-4.07,102-23.3h0l17.79-4.06,102-23.3,16.17-3.69Z" transform="translate(-37.26 -106.99)"/><path class="cls-1" d="M1712.23,417.34l1.1,134.88-17.81-4.07-.18-95.24c0-24.12-25.13-48.49-50-48.49-25.63,0-51.52,25.13-51.52,50l-.34,70.42-17.78-4.06-.18-93c0-24.12-25.12-48.49-50-48.49-25.63,0-51.52,25.13-51.52,50v68.31l-16.5-3.77-.17-89.43c0-24.12-25.12-48.49-50-48.49-25.63,0-51.52,25.13-51.52,50l-.32,64.62-13.15-3-.15-88.78c0-26.85-25.08-54-49.91-54-25.59,0-51.43,28-51.43,55.68l-.28,63.85-12.07-2.76.09-.4-.13-83.15c0-30.09-26.75-60.48-53.24-60.48-27.28,0-54.85,31.34-54.85,62.37l-.24,56.91-11-2.52-.16-85.88c0-24.12-25.13-48.49-50-48.49-25.63,0-51.52,25.13-51.52,50l-.29,61.08-7.27-1.66-6.06.08v-194h.79l662.85,148.51Z" transform="translate(-37.26 -106.99)"/><path class="cls-1" d="M1014.21,159.87,1009,172.6l-15.15-6.36V389.35l-33.06.45V239.27c0-40.37-33.33-73-74.52-73a73,73,0,0,0-73,73V389.8l-33.06-.45V166.24L765,172.6l-5.24-12.73L887,107.76Z" transform="translate(-37.26 -106.99)"/><path class="cls-1" d="M780.18,195.31v194l-6.06-.08-7.26,1.66-.3-61.08c0-24.87-25.89-50-51.52-50-24.87,0-50,24.37-50,48.49l-.16,85.88-11,2.52-.23-56.91c0-31-27.57-62.37-54.86-62.37-26.48,0-53.23,30.39-53.23,60.48l-.14,83.57-12,2.74-.27-63.85c0-27.7-25.85-55.68-51.43-55.68-24.83,0-49.91,27.14-49.91,54l-.15,88.78-13.16,3-.31-64.62c0-24.87-25.89-50-51.52-50-24.87,0-50,24.37-50,48.49l-.16,89.43-16.17,3.69L300,429.25c0-24.87-25.89-50-51.52-50-24.87,0-50,24.37-50,48.49l-.17,93-17.79,4.06-.34-70.42c0-24.87-25.89-50-51.52-50-24.87,0-50,24.37-50,48.49l-.18,95.24-17.81,4.07,1.1-134.88,54.77-73.52L779.39,195.31Z" transform="translate(-37.26 -106.99)"/><line class="cls-2" x1="1674.97" y1="310.35" x2="1620.2" y2="236.83"/><line class="cls-2" x1="1658.08" y1="345.92" x2="1658.26" y2="441.16"/><line class="cls-2" x1="1556.22" y1="417.85" x2="1556.56" y2="347.43"/><path class="cls-2" d="M1593.82,454.42c0-24.87,25.89-50,51.52-50" transform="translate(-37.26 -106.99)"/><path class="cls-2" d="M1695.34,452.91c0-24.12-25.13-48.49-50-48.49" transform="translate(-37.26 -106.99)"/><line class="cls-2" x1="1538.26" y1="320.75" x2="1538.44" y2="413.79"/><line class="cls-2" x1="1436.75" y1="390.57" x2="1436.75" y2="322.26"/><path class="cls-2" d="M1474,429.25c0-24.87,25.89-50,51.52-50" transform="translate(-37.26 -106.99)"/><path class="cls-2" d="M1575.52,427.74c0-24.12-25.12-48.49-50-48.49" transform="translate(-37.26 -106.99)"/><line class="cls-2" x1="1420.08" y1="297.37" x2="1420.25" y2="386.8"/><polyline class="cls-2" points="1318.25 363.51 1318.25 363.5 1318.57 298.88"/><path class="cls-2" d="M1355.83,405.87c0-24.87,25.89-50,51.52-50" transform="translate(-37.26 -106.99)"/><path class="cls-2" d="M1457.34,404.36c0-24.12-25.12-48.49-50-48.49" transform="translate(-37.26 -106.99)"/><line class="cls-2" x1="1304.95" y1="271.72" x2="1305.1" y2="360.5"/><line class="cls-2" x1="1203.33" y1="337.26" x2="1203.61" y2="273.41"/><path class="cls-2" d="M1240.87,380.4c0-27.7,25.84-55.68,51.43-55.68" transform="translate(-37.26 -106.99)"/><path class="cls-2" d="M1342.21,378.71c0-26.85-25.08-54-49.91-54" transform="translate(-37.26 -106.99)"/><line class="cls-2" x1="1191.22" y1="250.95" x2="1191.35" y2="334.1"/><line class="cls-2" x1="1082.89" y1="309.75" x2="1083.13" y2="252.84"/><path class="cls-2" d="M1120.39,359.83c0-31,27.57-62.37,54.85-62.37" transform="translate(-37.26 -106.99)"/><path class="cls-2" d="M1228.48,357.94c0-30.09-26.75-60.48-53.24-60.48" transform="translate(-37.26 -106.99)"/><line class="cls-2" x1="1071.7" y1="221.35" x2="1071.86" y2="307.23"/><line class="cls-2" x1="969.89" y1="283.94" x2="970.18" y2="222.86"/><path class="cls-2" d="M1007.44,329.85c0-24.87,25.89-50,51.52-50" transform="translate(-37.26 -106.99)"/><path class="cls-2" d="M1109,328.34c0-24.12-25.13-48.49-50-48.49" transform="translate(-37.26 -106.99)"/><line class="cls-2" x1="24.52" y1="310.35" x2="79.29" y2="236.83"/><line class="cls-2" x1="41.41" y1="345.92" x2="41.23" y2="441.16"/><line class="cls-2" x1="143.26" y1="417.85" x2="142.92" y2="347.43"/><path class="cls-2" d="M180.18,454.42c0-24.87-25.89-50-51.52-50" transform="translate(-37.26 -106.99)"/><path class="cls-2" d="M78.67,452.91c0-24.12,25.12-48.49,50-48.49" transform="translate(-37.26 -106.99)"/><line class="cls-2" x1="161.22" y1="320.75" x2="161.05" y2="413.79"/><line class="cls-2" x1="263.07" y1="390.49" x2="262.74" y2="322.26"/><path class="cls-2" d="M300,429.25c0-24.87-25.89-50-51.52-50" transform="translate(-37.26 -106.99)"/><path class="cls-2" d="M198.48,427.74c0-24.12,25.13-48.49,50-48.49" transform="translate(-37.26 -106.99)"/><line class="cls-2" x1="279.4" y1="297.37" x2="279.24" y2="386.8"/><polyline class="cls-2" points="381.23 363.51 381.23 363.5 380.92 298.88"/><path class="cls-2" d="M418.18,405.87c0-24.87-25.89-50-51.52-50" transform="translate(-37.26 -106.99)"/><path class="cls-2" d="M316.66,404.36c0-24.12,25.13-48.49,50-48.49" transform="translate(-37.26 -106.99)"/><line class="cls-2" x1="394.54" y1="271.72" x2="394.39" y2="360.5"/><line class="cls-2" x1="496.15" y1="337.26" x2="495.88" y2="273.41"/><path class="cls-2" d="M533.14,380.4c0-27.7-25.85-55.68-51.43-55.68" transform="translate(-37.26 -106.99)"/><path class="cls-2" d="M431.8,378.71c0-26.85,25.08-54,49.91-54" transform="translate(-37.26 -106.99)"/><line class="cls-2" x1="508.27" y1="250.95" x2="508.13" y2="334.52"/><line class="cls-2" x1="616.59" y1="309.75" x2="616.36" y2="252.84"/><path class="cls-2" d="M653.62,359.83c0-31-27.57-62.37-54.86-62.37" transform="translate(-37.26 -106.99)"/><path class="cls-2" d="M545.53,357.94c0-30.09,26.75-60.48,53.23-60.48" transform="translate(-37.26 -106.99)"/><line class="cls-2" x1="627.79" y1="221.35" x2="627.63" y2="307.23"/><line class="cls-2" x1="729.6" y1="283.94" x2="729.3" y2="222.86"/><path class="cls-2" d="M766.56,329.85c0-24.87-25.89-50-51.52-50" transform="translate(-37.26 -106.99)"/><path class="cls-2" d="M665.05,328.34c0-24.12,25.12-48.49,50-48.49" transform="translate(-37.26 -106.99)"/><polyline class="cls-2" points="976.95 52.88 849.74 0.77 848.98 0.46"/><polyline class="cls-2" points="962.62 282.28 956.56 282.36 923.5 282.81 849.74 283.8"/><line class="cls-2" x1="976.95" y1="52.88" x2="971.71" y2="65.61"/><polyline class="cls-2" points="1698.98 450.46 1676.07 445.23 1658.26 441.16 1556.22 417.86 1556.22 417.85 1538.44 413.79 1436.75 390.57 1420.25 386.8 1318.25 363.5 1305.1 360.5 1203.33 337.26 1191.26 334.5 1082.89 309.75 1071.86 307.23 969.89 283.94 962.62 282.28"/><line class="cls-2" x1="956.56" y1="59.25" x2="971.71" y2="65.61"/><line class="cls-2" x1="1676.07" y1="445.23" x2="1674.97" y2="310.35"/><line class="cls-2" x1="957.35" y1="88.32" x2="1620.2" y2="236.83"/><line class="cls-2" x1="1698.98" y1="450.46" x2="1698.98" y2="600.46"/><line class="cls-2" x1="1345.7" y1="600.46" x2="1698.98" y2="600.46"/><path class="cls-2" d="M1383,707.45c0-114.76-250.37-230.69-496.72-230.69" transform="translate(-37.26 -106.99)"/><polyline class="cls-2" points="956.56 59.25 956.56 88.32 956.56 282.36"/><polyline class="cls-2" points="923.5 132.28 923.5 282.81 923.5 283.04"/><path class="cls-2" d="M960.76,239.27c0-40.37-33.33-73-74.52-73" transform="translate(-37.26 -106.99)"/><polyline class="cls-2" points="722.53 52.88 849.74 0.77 850.5 0.46"/><polyline class="cls-2" points="736.86 282.28 742.92 282.36 775.98 282.81 849.74 283.8"/><line class="cls-2" x1="722.53" y1="52.88" x2="727.77" y2="65.61"/><polyline class="cls-2" points="0.5 450.46 23.42 445.23 41.23 441.16 143.26 417.86 143.26 417.85 161.05 413.79 263.07 390.49 279.24 386.8 381.23 363.5 394.39 360.5 496.15 337.26 508.13 334.52 616.59 309.75 627.63 307.23 729.6 283.94 736.86 282.28"/><line class="cls-2" x1="742.92" y1="59.25" x2="727.77" y2="65.61"/><line class="cls-2" x1="23.42" y1="445.23" x2="24.52" y2="310.35"/><line class="cls-2" x1="742.13" y1="88.32" x2="79.29" y2="236.83"/><line class="cls-2" x1="0.5" y1="450.46" x2="0.5" y2="600.46"/><line class="cls-2" x1="353.79" y1="600.46" x2="0.5" y2="600.46"/><path class="cls-2" d="M391.05,707.45c0-114.76,248.85-230.69,495.19-230.69" transform="translate(-37.26 -106.99)"/><polyline class="cls-2" points="742.92 59.25 742.92 88.32 742.92 282.36"/><polyline class="cls-2" points="775.98 132.28 775.98 282.81 775.98 283.04"/><path class="cls-2" d="M813.24,239.27a73,73,0,0,1,73-73" transform="translate(-37.26 -106.99)"/></g></svg>